<svg width="16" height="16" viewBox="0 0 16 16" fill="none" xmlns="http://www.w3.org/2000/svg">
    <path 
        d="M7.99998 1.33334C4.32398 1.33334 1.33331 4.324 1.33331 8C1.33331 11.676 4.32398 14.6667 7.99998 14.6667C11.676 14.6667 14.6666 11.676 14.6666 8C14.6666 4.324 11.676 1.33334 7.99998 1.33334ZM7.99998 13.3333C5.05931 13.3333 2.66665 10.9407 2.66665 8C2.66665 5.05934 5.05931 2.66667 7.99998 2.66667C10.9406 2.66667 13.3333 5.05934 13.3333 8C13.3333 10.9407 10.9406 13.3333 7.99998 13.3333Z" 
        fill='currentColor'
        fill-rule='evenodd'
        clip-rule='evenodd'
    />
    <path 
        d="M7.33325 7.33333H8.66659V11.3333H7.33325V7.33333ZM7.33325 4.66666H8.66659V6H7.33325V4.66666Z" 
        fill='currentColor'
        fill-rule='evenodd'
        clip-rule='evenodd'
    />
</svg>
